<svg xmlns="http://www.w3.org/2000/svg" viewBox="0 0 180 220">
  <g>
    <rect x="54" y="30" width="72" height="20" fill="#522196"/>
    <rect x="34" y="50" width="112" height="86" fill="#522196"/>
    <rect x="48" y="64" width="84" height="72" fill="#FFE8F8"/>
    <rect x="60" y="80" width="16" height="16" fill="#522196"/>
    <rect x="104" y="80" width="16" height="16" fill="#522196"/>
    <rect x="78" y="104" width="24" height="10" fill="#CD2382"/>
    <rect x="22" y="76" width="24" height="66" fill="#FF62BB"/>
    <rect x="134" y="76" width="24" height="66" fill="#5FBBEF"/>
    <rect x="42" y="136" width="96" height="54" fill="#CD2382"/>
    <rect x="58" y="152" width="64" height="22" fill="#FFE76C"/>
    <rect x="46" y="190" width="28" height="18" fill="#522196"/>
    <rect x="106" y="190" width="28" height="18" fill="#522196"/>
    <rect x="18" y="118" width="20" height="38" fill="#FFE8F8"/>
    <rect x="142" y="118" width="20" height="38" fill="#FFE8F8"/>
    <path d="M78 18h12v12h12v12H90v12H78V42H66V30h12z" fill="#FFE76C"/>
    <path d="M132 28h10v10h10v10h-10v10h-10V48h-10V38h10z" fill="#8FFFD6"/>
  </g>
</svg>
