<svg xmlns="http://www.w3.org/2000/svg" viewBox="0 0 760 220" role="img" aria-labelledby="title">
  <title id="title">Pixel Braid Studio</title>
  <rect x="16" y="28" width="728" height="164" rx="26" fill="#FFE8F8" stroke="#522196" stroke-width="7"/>
  <path d="M62 66h24V54h78v12h24v72h-24v24H110v-34h38V90h-38v72H62z" fill="#CD2382" stroke="#522196" stroke-width="7" stroke-linejoin="round"/>
  <rect x="76" y="80" width="18" height="18" fill="#FFE76C"/>
  <rect x="96" y="80" width="18" height="18" fill="#5FBBEF"/>
  <rect x="220" y="122" width="9" height="46" rx="4.5" fill="#CD2382"/>
  <text x="214" y="120" fill="#522196" font-family="Poppins, Outfit, Montserrat, Arial, sans-serif" font-size="76" font-weight="800" letter-spacing="-1">ixel</text>
  <text x="218" y="164" fill="#CD2382" font-family="Poppins, Outfit, Montserrat, Arial, sans-serif" font-size="40" font-weight="600" letter-spacing="1.8">Braid Studio</text>
  <path d="M666 58h15v15h15v15h-15v15h-15V88h-15V73h15z" fill="#5FBBEF"/>
  <path d="M612 132h13v13h13v13h-13v13h-13v-13h-13v-13h13z" fill="#FF62BB"/>
</svg>
