<svg xmlns="http://www.w3.org/2000/svg" viewBox="0 0 760 260" role="img" aria-labelledby="title">
  <title id="title">Pixel Braid Studio</title>
  <rect x="18" y="26" width="724" height="208" rx="30" fill="#FFE8F8" stroke="#522196" stroke-width="7"/>
  <g aria-label="Pixel">
    <path d="M74 72h24V60h82v12h24v76h-24v24h-58v-36h40V98h-40v74H74z" fill="#CD2382" stroke="#522196" stroke-width="7" stroke-linejoin="round"/>
    <rect x="88" y="86" width="18" height="18" fill="#FFFFFF"/>
    <rect x="110" y="86" width="18" height="18" fill="#5FBBEF"/>
    <text x="224" y="150" fill="#522196" font-family="Poppins, Outfit, Montserrat, Arial, sans-serif" font-size="88" font-weight="800" letter-spacing="-1.8">ixel</text>
  </g>
  <text x="226" y="198" fill="#522196" opacity="0.86" font-family="Poppins, Outfit, Montserrat, Arial, sans-serif" font-size="34" font-weight="500" letter-spacing="1.1">Braid Studio</text>
  <rect x="226" y="166" width="248" height="3" rx="1.5" fill="#7A3CB5" opacity="0.28"/>
  <path d="M664 62h14v14h14v14h-14v14h-14V90h-14V76h14z" fill="#5FBBEF"/>
  <path d="M612 168h12v12h12v12h-12v12h-12v-12h-12v-12h12z" fill="#FF62BB"/>
</svg>
